<svg xmlns="http://www.w3.org/2000/svg" xmlns:xlink="http://www.w3.org/1999/xlink" width="50" height="39" version="1.1" style=""><rect id="backgroundrect" width="100%" height="100%" x="0" y="0" fill="none" stroke="none"/>
    <!-- Generator: Sketch 53.2 (72643) - https://sketchapp.com -->
    <title>Group</title>
    <desc>Created with Sketch.</desc>
    
<g class="currentLayer" style=""><title>Layer 1</title><g id="WiP" stroke="none" stroke-width="1" fill="none" fill-rule="evenodd">
        <g id="Artboard">
            <g id="Group">
                <polygon id="Rectangle" fill="#808282" points="3,14 25,26.5 47,14 40.85517501831055,39 9.084220886230469,39 "/>
                <polygon id="Triangle" fill-opacity="0.262838724" fill="#101A1A" points="25,8 40,39 10,39 "/>
                <circle id="Oval" fill="#5E6363" cx="2" cy="9" r="2"/>
                <circle id="Oval" fill="#5E6363" cx="25" cy="2" r="2"/>
                <circle id="Oval" fill="#5E6363" cx="48" cy="9" r="2"/>
            </g>
        </g>
    </g><path fill="#6d6d6d" stroke="none" stroke-width="2" stroke-linejoin="round" stroke-dashoffset="" fill-rule="nonzero" marker-start="" marker-mid="" marker-end="" id="svg_2" d="M9.287998802497182,38.8506243359474 L24.887998224209163,8.350623907150895 L40.48799764592126,38.8506243359474 L9.287998802497182,38.8506243359474 z" style="color: rgb(0, 0, 0);" class="" fill-opacity="1"/><path fill="#b6b6b6" stroke-width="2" stroke-linejoin="round" stroke-dashoffset="" fill-rule="nonzero" marker-start="" marker-mid="" marker-end="" id="svg_1" d="M288.02857155346265,29.224999890719346 L293.5142857767324,19.625 L299,29.224999890719346 L288.02857155346265,29.224999890719346 z" style="color: rgb(0, 0, 0);"/><path fill="#919191" stroke-width="2" stroke-linejoin="round" stroke-dashoffset="" fill-rule="nonzero" marker-start="" marker-mid="" marker-end="" id="svg_4" d="M17.62605470050303,22.66451596295848 L24.916857036500442,8.094652818596472 L32.20765937249786,22.66451596295848 L17.62605470050303,22.66451596295848 z" style="color: rgb(0, 0, 0);" class="" fill-opacity="1"/><path fill="#919191" stroke-width="2" stroke-linejoin="round" stroke-dashoffset="" fill-rule="nonzero" marker-start="" marker-mid="" marker-end="" id="svg_3" d="M17.7069465685218,26.75825353305347 L24.804383793567283,22.358118905442062 L31.901821018612743,26.75825353305347 L17.7069465685218,26.75825353305347 z" style="color: rgb(0, 0, 0);" class="" transform="rotate(-179.63021850585938 24.804384231567383,24.55818557739258) " fill-opacity="1"/></g></svg>